<?xml version="1.0" encoding="UTF-8" standalone="no"?>
<!-- Created with Inkscape (http://www.inkscape.org/) -->

<svg
   width="88mm"
   height="72mm"
   viewBox="0 0 88 72"
   version="1.1"
   id="svg1550"
   inkscape:version="1.2.1 (9c6d41e410, 2022-07-14)"
   sodipodi:docname="logotipo quadrado preto.svg"
   xmlns:inkscape="http://www.inkscape.org/namespaces/inkscape"
   xmlns:sodipodi="http://sodipodi.sourceforge.net/DTD/sodipodi-0.dtd"
   xmlns="http://www.w3.org/2000/svg"
   xmlns:svg="http://www.w3.org/2000/svg">
  <sodipodi:namedview
     id="namedview1552"
     pagecolor="#ffffff"
     bordercolor="#000000"
     borderopacity="0.25"
     inkscape:showpageshadow="2"
     inkscape:pageopacity="0.0"
     inkscape:pagecheckerboard="0"
     inkscape:deskcolor="#d1d1d1"
     inkscape:document-units="mm"
     showgrid="false"
     inkscape:zoom="0.5852904"
     inkscape:cx="396.38442"
     inkscape:cy="15.376982"
     inkscape:window-width="1600"
     inkscape:window-height="837"
     inkscape:window-x="-8"
     inkscape:window-y="-8"
     inkscape:window-maximized="1"
     inkscape:current-layer="layer1" />
  <defs
     id="defs1547" />
  <g
     inkscape:label="Camada 1"
     inkscape:groupmode="layer"
     id="layer1">
    <g
       id="g1418"
       transform="translate(-112.94328,-147.77419)">
      <ellipse
         style="fill:#000000;stroke-width:0.123912"
         id="path466"
         cx="152.91844"
         cy="184.44138"
         rx="43.578377"
         ry="36.157799"
         transform="matrix(1,0,0.02345573,0.99972488,0,0)" />
      <ellipse
         style="fill:#ffffff;stroke-width:0.337487"
         id="path470"
         cx="168.42853"
         cy="209.32068"
         rx="8.5663242"
         ry="1.9018427" />
      <ellipse
         style="fill:#ffffff;stroke-width:0.50017"
         id="path472"
         cx="156.20973"
         cy="202.74394"
         rx="19.844976"
         ry="3.753547" />
      <path
         style="fill:#ffffff;stroke-width:0.258453"
         d="m 116.9034,195.64372 c 3.07843,-2.40908 5.92007,-4.10434 5.92007,-4.10434 l 2.52591,-0.62458 c 0,0 7.57772,-2.31984 7.89346,-2.31984 0.31574,0 6.70944,-4.10434 6.70944,-4.10434 l 4.89394,-5.71039 5.28861,-5.08582 3.631,-3.74744 4.81502,-2.40907 4.18354,0.3569 4.02565,0.7138 0.71042,0.62457 2.5259,1.51682 4.42033,4.01512 1.73656,1.15992 4.57821,-1.96294 2.5259,-0.26768 3.39419,1.33838 c 0,0 2.52591,-0.17846 2.52591,0.0892 0,0.26768 0.71041,1.60604 0.71041,1.60604 h 0.63148 l 0.78934,0.89226 0.94722,0.53534 0.55254,0.44612 -0.55254,1.87372 0.0789,0.62458 v 0.7138 l -0.86828,0.7138 -1.18402,0.3569 -2.28911,0.44612 -4.49927,2.05218 -3.86778,2.49829 -1.34189,2.4983 0.0789,1.15992 0.15787,2.67674 1.49976,1.4276 2.99952,0.62458 0.31573,0.7138 0.23681,0.53534 -0.39467,0.44612 h -0.55255 l -0.55254,0.26768 -0.39467,0.17845 -3.8678,-0.44613 -0.86828,-0.53534 -0.2368,-1.24915 -0.78935,-0.53535 -2.76271,-4.90736 -1.10508,-0.3569 -2.0523,0.7138 -1.34188,2.58752 -0.94721,1.69526 0.47359,1.33838 0.71041,1.33838 1.89443,0.53534 2.05231,0.62457 0.2368,1.0707 -0.55255,0.7138 -0.55254,0.3569 -1.73656,0.0892 -0.31574,0.53534 -0.86827,-0.7138 -1.02615,-0.44612 -2.2891,-0.80302 -1.10509,-3.47978 -1.18402,-0.3569 -0.4736,-9.10092 c 0,0 -0.94722,-0.7138 -1.26297,-1.0707 -0.31572,-0.3569 -1.57867,2.23062 -1.57867,2.23062 l -2.36804,2.40907 -1.3419,0.89225 -1.10508,3.12286 1.02615,1.96295 3.15739,0.62457 0.2368,1.15993 -0.31575,0.26767 -0.0789,0.17846 c 0,0 -0.0789,0.35689 -0.39467,0.35689 -0.31574,0 -1.26296,0 -1.26296,0 l 0.0789,0.7138 -0.31575,0.17845 -0.2368,0.80302 -0.86828,-0.17845 h -0.4736 l -0.0789,0.62458 -1.97336,-1.0707 -1.02615,0.80303 -2.21017,-2.23062 -0.0789,-2.40908 -0.15787,-1.60604 -1.42082,-2.1414 0.55254,-3.03364 -0.86828,-2.40907 -2.0523,1.33837 -5.36755,2.05217 -4.65714,0.7138 -12.55059,1.87371 z"
         id="path965-6" />
      <path
         style="fill:#ffffff;stroke-width:0.264583"
         d="m 144.80191,205.21595 4.47511,4.15546"
         id="path1188" />
      <path
         style="fill:#ffffff;stroke-width:0.264583"
         d="m 160.14515,205.5356 c -0.4262,0 -0.8524,0 -1.2786,0"
         id="path1190" />
      <ellipse
         style="fill:#ffffff;stroke-width:0.190652"
         id="path1214"
         cx="175.32857"
         cy="213.36705"
         rx="3.3563354"
         ry="1.4384296" />
      <ellipse
         style="fill:#ffffff;stroke-width:0.50017"
         id="ellipse1378"
         cx="156.20973"
         cy="202.74394"
         rx="19.844976"
         ry="3.753547" />
    </g>
  </g>
</svg>
